<?xml version="1.0" standalone="no"?>
<!DOCTYPE svg PUBLIC "-//W3C//DTD SVG 20010904//EN"
 "http://www.w3.org/TR/2001/REC-SVG-20010904/DTD/svg10.dtd">
<svg version="1.0" xmlns="http://www.w3.org/2000/svg"
 width="400.000000pt" height="300.000000pt" viewBox="0 0 400.000000 300.000000"
 preserveAspectRatio="xMidYMid meet">

<g transform="translate(0.000000,300.000000) scale(0.100000,-0.100000)"
fill="#000000" stroke="none">
<path d="M2470 2679 c0 -5 5 -7 10 -4 6 3 10 8 10 11 0 2 -4 4 -10 4 -5 0 -10
-5 -10 -11z"/>
<path d="M1538 2663 c6 -2 18 -2 25 0 6 3 1 5 -13 5 -14 0 -19 -2 -12 -5z"/>
<path d="M2419 2665 c-3 -2 -16 -6 -30 -8 -25 -4 -36 -41 -16 -54 6 -4 7 -1 2
7 -6 10 -4 12 11 6 10 -4 15 -4 11 0 -4 4 3 18 15 31 12 13 19 23 16 23 -2 0
-7 -2 -9 -5z m-25 -27 c-3 -4 -9 -8 -15 -8 -5 0 -9 4 -9 8 0 5 7 9 15 9 8 0
12 -4 9 -9z"/>
<path d="M2672 2654 c10 -10 20 -15 24 -12 3 4 -5 12 -18 18 -22 12 -22 12 -6
-6z"/>
<path d="M1420 2651 c-24 -7 -24 -7 9 -14 46 -10 73 -7 36 4 -24 6 -19 7 23 5
32 -2 48 0 40 5 -15 10 -72 10 -108 0z"/>
<path d="M2643 2642 c1 -12 6 -18 15 -15 7 3 10 9 5 12 -4 3 -11 10 -15 15 -4
4 -6 -1 -5 -12z"/>
<path d="M1588 2643 c14 -3 20 -9 15 -16 -14 -22 -13 -39 2 -27 21 17 11 45
-16 47 -23 1 -23 1 -1 -4z"/>
<path d="M1305 2631 c-3 -5 0 -13 6 -17 7 -4 9 -3 5 4 -3 5 0 13 6 15 9 4 10
6 1 6 -6 1 -14 -3 -18 -8z"/>
<path d="M2336 2625 c-9 -26 -7 -32 5 -12 6 10 9 21 6 23 -2 3 -7 -2 -11 -11z"/>
<path d="M2714 2615 c0 -19 3 -22 13 -13 10 8 10 14 2 24 -15 18 -15 18 -15
-11z"/>
<path d="M1342 2614 c-7 -8 -8 -14 -3 -14 10 0 25 19 20 25 -2 1 -10 -3 -17
-11z"/>
<path d="M1548 2623 c6 -2 18 -2 25 0 6 3 1 5 -13 5 -14 0 -19 -2 -12 -5z"/>
<path d="M1269 2603 c-12 -16 -12 -17 2 -6 9 7 20 9 24 5 5 -4 5 -1 1 6 -9 16
-11 15 -27 -5z"/>
<path d="M1660 2610 c-9 -6 -10 -10 -3 -10 6 0 15 5 18 10 8 12 4 12 -15 0z"/>
<path d="M1390 2590 c0 -6 7 -10 15 -10 8 0 15 2 15 4 0 2 -7 6 -15 10 -8 3
-15 1 -15 -4z"/>
<path d="M1689 2598 c-14 -52 10 -98 30 -59 9 16 7 22 -9 34 -11 7 -17 17 -13
20 3 4 3 7 0 7 -4 0 -7 -1 -8 -2z m27 -40 c5 -7 3 -8 -6 -3 -10 6 -12 4 -6
-11 5 -14 4 -16 -5 -7 -6 6 -8 16 -5 22 9 14 13 14 22 -1z"/>
<path d="M2570 2590 c-24 -15 -7 -18 20 -3 14 7 18 13 10 13 -8 0 -22 -4 -30
-10z"/>
<path d="M2468 2583 c7 -3 16 -2 19 1 4 3 -2 6 -13 5 -11 0 -14 -3 -6 -6z"/>
<path d="M2601 2576 c-19 -11 -21 -14 -7 -19 9 -4 23 -3 33 0 10 4 14 2 10 -4
-4 -6 3 -13 16 -16 20 -6 20 -4 -5 18 -24 20 -25 24 -10 28 12 3 13 5 2 5 -8
1 -26 -5 -39 -12z"/>
<path d="M1245 2570 c3 -5 8 -10 11 -10 2 0 4 5 4 10 0 6 -5 10 -11 10 -5 0
-7 -4 -4 -10z"/>
<path d="M2275 2570 c-3 -6 1 -7 9 -4 9 3 16 1 16 -5 0 -10 -12 -15 -31 -13
-3 1 -6 -6 -6 -14 0 -10 4 -11 10 -5 7 7 15 7 23 0 18 -15 27 6 14 31 -12 22
-25 26 -35 10z"/>
<path d="M2757 2566 c-4 -10 -1 -13 9 -9 7 3 14 9 14 14 0 14 -17 10 -23 -5z"/>
<path d="M1388 2563 c7 -3 16 -2 19 1 4 3 -2 6 -13 5 -11 0 -14 -3 -6 -6z"/>
<path d="M1528 2563 c7 -3 16 -2 19 1 4 3 -2 6 -13 5 -11 0 -14 -3 -6 -6z"/>
<path d="M2478 2563 c7 -3 16 -2 19 1 4 3 -2 6 -13 5 -11 0 -14 -3 -6 -6z"/>
<path d="M1240 2543 c6 -13 13 -23 15 -23 2 0 9 10 15 23 10 19 9 20 -2 5 -13
-15 -15 -15 -26 0 -10 14 -11 13 -2 -5z"/>
<path d="M1363 2550 c2 -8 12 -16 23 -17 13 -2 15 -1 4 4 -8 3 -19 11 -23 17
-6 7 -7 6 -4 -4z"/>
<path d="M1448 2553 c7 -3 16 -2 19 1 4 3 -2 6 -13 5 -11 0 -14 -3 -6 -6z"/>
<path d="M2693 2540 c1 -16 -3 -24 -11 -22 -15 3 -5 -19 23 -53 15 -18 15 -16
0 9 -17 28 -17 30 0 42 10 7 23 15 29 17 8 3 7 8 -1 18 -11 11 -13 10 -13 -6
0 -18 0 -18 -15 1 -14 18 -15 18 -12 -6z"/>
<path d="M1605 2501 c25 -26 32 -29 39 -17 9 12 12 12 23 -2 11 -14 12 -13 2
10 -12 28 -29 29 -29 2 0 -8 -5 -12 -11 -9 -6 4 -8 14 -4 23 3 9 3 13 -1 10
-4 -4 -16 -2 -28 4 -15 8 -13 3 9 -21z"/>
<path d="M1317 2508 c2 -5 1 -8 -4 -8 -4 0 -9 -12 -9 -28 -1 -15 1 -21 3 -14
3 6 8 10 13 7 4 -3 6 5 2 17 -3 13 -1 19 5 15 6 -4 15 -1 21 6 8 9 4 12 -13
12 -13 0 -21 -3 -18 -7z"/>
<path d="M2341 2504 c0 -11 3 -14 6 -6 3 7 2 16 -1 19 -3 4 -6 -2 -5 -13z"/>
<path d="M1186 2475 c-9 -26 -7 -32 5 -12 6 10 9 21 6 23 -2 3 -7 -2 -11 -11z"/>
<path d="M2821 2444 c0 -11 3 -14 6 -6 3 7 2 16 -1 19 -3 4 -6 -2 -5 -13z"/>
<path d="M1766 2415 c-3 -8 -1 -15 4 -15 6 0 10 7 10 15 0 8 -2 15 -4 15 -2 0
-6 -7 -10 -15z"/>
<path d="M2803 2407 c2 -25 17 -40 17 -17 0 6 7 10 15 10 18 0 20 -17 3 -22
-8 -3 -7 -6 3 -10 10 -4 16 0 16 10 0 23 -17 43 -29 36 -6 -4 -14 -1 -18 6 -5
8 -8 3 -7 -13z"/>
<path d="M1165 2388 l-16 -33 20 25 c20 24 26 40 16 40 -2 0 -12 -15 -20 -32z"/>
<path d="M1186 2373 c-6 -14 -5 -15 5 -6 7 7 10 15 7 18 -3 3 -9 -2 -12 -12z"/>
<path d="M1651 2374 c0 -11 3 -14 6 -6 3 7 2 16 -1 19 -3 4 -6 -2 -5 -13z"/>
<path d="M2873 2373 c0 -9 4 -10 14 -2 7 6 13 12 13 14 0 1 -6 2 -13 2 -8 0
-14 -6 -14 -14z"/>
<path d="M1760 2367 c0 -9 4 -18 9 -21 5 -4 8 1 7 9 -3 21 -16 31 -16 12z"/>
<path d="M1070 2335 c-14 -8 -20 -15 -15 -15 6 0 3 -4 -5 -10 -9 -5 -17 -5
-21 1 -3 6 -11 4 -19 -6 -11 -13 -10 -14 4 -9 12 5 15 2 10 -10 -3 -9 -1 -16
6 -16 6 0 8 5 5 10 -4 6 9 17 27 25 18 8 27 14 19 15 -11 0 -9 4 5 15 24 18
16 19 -16 0z"/>
<path d="M1697 2333 c-4 -3 -7 -11 -7 -17 0 -6 5 -5 12 2 6 6 9 14 7 17 -3 3
-9 2 -12 -2z"/>
<path d="M2974 2325 c-10 -8 -14 -15 -8 -15 5 0 16 6 22 12 8 8 15 9 20 3 4
-6 16 -17 27 -25 15 -11 14 -7 -4 13 -28 31 -31 32 -57 12z"/>
<path d="M1740 2315 c0 -11 -5 -15 -15 -12 -8 4 -17 2 -20 -3 -3 -5 3 -11 12
-13 17 -4 17 -5 0 -6 -10 0 -17 -6 -15 -12 6 -18 22 -13 34 10 l11 21 10 -22
c7 -17 11 -18 15 -7 3 8 -3 25 -13 38 -16 19 -19 20 -19 6z"/>
<path d="M1661 2293 c-1 -24 13 -31 25 -11 4 6 3 8 -4 4 -6 -3 -13 2 -15 11
-4 14 -5 13 -6 -4z"/>
<path d="M1098 2293 c7 -3 16 -2 19 1 4 3 -2 6 -13 5 -11 0 -14 -3 -6 -6z"/>
<path d="M1116 2255 c1 -15 -3 -25 -11 -25 -7 0 -15 -6 -18 -13 -4 -10 3 -10
28 2 18 9 26 17 19 19 -7 2 -11 9 -8 17 3 7 1 16 -4 19 -5 3 -8 -6 -6 -19z"/>
<path d="M2351 2264 c0 -11 3 -14 6 -6 3 7 2 16 -1 19 -3 4 -6 -2 -5 -13z"/>
<path d="M3056 2272 c-2 -4 -1 -14 3 -21 6 -9 11 -10 15 -2 4 6 2 11 -4 11 -6
0 -8 5 -5 10 3 6 4 10 1 10 -3 0 -7 -4 -10 -8z"/>
<path d="M960 2250 c-15 -15 -19 -29 -15 -56 2 -20 7 -39 10 -42 3 -3 3 12 1
33 -4 31 0 45 16 62 26 28 16 31 -12 3z"/>
<path d="M1150 2260 c0 -5 5 -10 11 -10 5 0 7 5 4 10 -3 6 -8 10 -11 10 -2 0
-4 -4 -4 -10z"/>
<path d="M2880 2259 c19 -4 42 -17 51 -28 16 -20 17 -20 22 -1 3 13 1 17 -9
13 -8 -3 -14 0 -14 5 0 6 8 12 18 14 9 2 -10 4 -43 4 -51 1 -55 0 -25 -7z"/>
<path d="M1666 2238 c-3 -13 -2 -26 2 -30 4 -4 8 6 9 23 3 35 -2 38 -11 7z"/>
<path d="M3040 2241 c0 -6 4 -13 10 -16 6 -3 7 1 4 9 -7 18 -14 21 -14 7z"/>
<path d="M985 2220 c3 -5 11 -10 16 -10 6 0 7 5 4 10 -3 6 -11 10 -16 10 -6 0
-7 -4 -4 -10z"/>
<path d="M1030 2211 c0 -6 5 -13 10 -16 6 -4 7 -11 4 -17 -4 -7 -2 -8 5 -4 8
6 9 12 2 20 -6 7 -8 16 -4 19 3 4 1 7 -5 7 -7 0 -12 -4 -12 -9z"/>
<path d="M1160 2211 c0 -6 4 -13 10 -16 6 -3 7 1 4 9 -7 18 -14 21 -14 7z"/>
<path d="M3068 2206 c-17 -12 -25 -36 -12 -36 8 0 29 24 32 38 3 15 1 15 -20
-2z"/>
<path d="M1654 2035 c0 -88 2 -123 3 -77 2 46 2 118 0 160 -1 42 -3 5 -3 -83z"/>
<path d="M941 2130 c14 -31 19 -36 19 -24 0 6 -7 19 -16 30 -14 18 -14 18 -3
-6z"/>
<path d="M2811 2134 c0 -11 3 -14 6 -6 3 7 2 16 -1 19 -3 4 -6 -2 -5 -13z"/>
<path d="M3050 2135 c0 -8 8 -11 20 -8 11 3 20 7 20 8 0 1 -9 5 -20 8 -12 3
-20 0 -20 -8z"/>
<path d="M2352 2100 c0 -14 2 -19 5 -12 2 6 2 18 0 25 -3 6 -5 1 -5 -13z"/>
<path d="M2802 1985 c0 -16 2 -22 5 -12 2 9 2 23 0 30 -3 6 -5 -1 -5 -18z"/>
<path d="M1291 1974 c0 -11 3 -14 6 -6 3 7 2 16 -1 19 -3 4 -6 -2 -5 -13z"/>
<path d="M921 1944 c0 -11 3 -14 6 -6 3 7 2 16 -1 19 -3 4 -6 -2 -5 -13z"/>
<path d="M2800 1901 c0 -11 4 -22 9 -25 4 -3 6 6 3 19 -5 30 -12 33 -12 6z"/>
<path d="M2831 1904 c0 -11 3 -14 6 -6 3 7 2 16 -1 19 -3 4 -6 -2 -5 -13z"/>
<path d="M1287 1891 c-4 -17 -3 -21 5 -13 5 5 8 16 6 23 -3 8 -7 3 -11 -10z"/>
<path d="M2322 1860 c0 -14 2 -19 5 -12 2 6 2 18 0 25 -3 6 -5 1 -5 -13z"/>
<path d="M2720 1865 c0 -8 -8 -15 -17 -15 -13 0 -14 -3 -5 -12 8 -8 15 -8 27
2 17 14 20 40 5 40 -5 0 -10 -7 -10 -15z"/>
<path d="M1295 1850 c3 -5 8 -10 11 -10 2 0 4 5 4 10 0 6 -5 10 -11 10 -5 0
-7 -4 -4 -10z"/>
<path d="M960 1820 c0 -19 3 -21 12 -12 9 9 9 15 0 24 -9 9 -12 7 -12 -12z"/>
<path d="M2341 1824 c0 -11 3 -14 6 -6 3 7 2 16 -1 19 -3 4 -6 -2 -5 -13z"/>
<path d="M2673 1833 c4 -7 0 -16 -10 -22 -16 -10 -16 -10 4 -8 32 4 36 12 16
28 -9 8 -14 9 -10 2z"/>
<path d="M1310 1822 c0 -12 19 -26 26 -19 2 2 -2 10 -11 17 -9 8 -15 8 -15 2z"/>
<path d="M901 1784 c0 -11 3 -14 6 -6 3 7 2 16 -1 19 -3 4 -6 -2 -5 -13z"/>
<path d="M1224 1789 c-3 -6 -2 -14 3 -18 5 -3 16 -16 24 -28 15 -21 15 -21 15
14 0 20 -2 31 -4 25 -2 -7 -8 -12 -14 -12 -6 0 -8 7 -4 15 6 17 -9 20 -20 4z"/>
<path d="M1650 1790 c0 -6 7 -10 15 -10 8 0 15 2 15 4 0 2 -7 6 -15 10 -8 3
-15 1 -15 -4z"/>
<path d="M985 1779 c-10 -14 -1 -21 19 -13 9 3 13 10 10 15 -7 12 -21 11 -29
-2z"/>
<path d="M1342 1774 c8 -9 23 -14 33 -12 12 2 7 7 -16 15 -30 12 -32 11 -17
-3z"/>
<path d="M2600 1775 c-14 -8 -34 -15 -45 -16 -13 0 -8 -4 14 -10 18 -6 36 -8
39 -5 3 3 -3 6 -14 6 -15 1 -14 4 9 16 15 8 27 17 27 19 0 7 -2 6 -30 -10z"/>
<path d="M940 1759 c0 -11 4 -18 10 -14 5 3 7 12 3 20 -7 21 -13 19 -13 -6z"/>
<path d="M1200 1773 c0 -6 8 -17 18 -24 16 -13 16 -13 2 6 -8 11 -16 22 -17
24 -2 2 -3 0 -3 -6z"/>
<path d="M1295 1770 c-3 -5 -1 -10 4 -10 6 0 11 5 11 10 0 6 -2 10 -4 10 -3 0
-8 -4 -11 -10z"/>
<path d="M2765 1750 c-10 -11 -16 -22 -14 -24 2 -2 12 7 22 20 22 29 17 32 -8
4z"/>
<path d="M906 1744 c-4 -9 -4 -19 -1 -22 2 -3 7 3 11 12 4 9 4 19 1 22 -2 3
-7 -3 -11 -12z"/>
<path d="M1408 1748 c5 -5 16 -8 23 -6 8 3 3 7 -10 11 -17 4 -21 3 -13 -5z"/>
<path d="M2351 1744 c0 -11 3 -14 6 -6 3 7 2 16 -1 19 -3 4 -6 -2 -5 -13z"/>
<path d="M2434 1749 c-3 -6 -1 -16 5 -22 8 -8 11 -5 11 11 0 24 -5 28 -16 11z"/>
<path d="M2470 1753 c1 -18 17 -28 42 -28 42 1 46 15 4 15 -22 0 -35 4 -31 10
3 6 1 10 -4 10 -6 0 -11 -3 -11 -7z"/>
<path d="M2625 1750 c3 -5 8 -10 11 -10 2 0 4 5 4 10 0 6 -5 10 -11 10 -5 0
-7 -4 -4 -10z"/>
<path d="M1320 1739 c0 -5 5 -7 10 -4 6 3 10 8 10 11 0 2 -4 4 -10 4 -5 0 -10
-5 -10 -11z"/>
<path d="M1370 1740 c8 -5 20 -10 25 -10 6 0 3 5 -5 10 -8 5 -19 10 -25 10 -5
0 -3 -5 5 -10z"/>
<path d="M1782 1736 c7 -8 15 -12 17 -11 5 6 -10 25 -20 25 -5 0 -4 -6 3 -14z"/>
<path d="M2325 1730 c3 -5 8 -10 11 -10 2 0 4 5 4 10 0 6 -5 10 -11 10 -5 0
-7 -4 -4 -10z"/>
<path d="M1255 1700 c16 -16 34 -30 39 -30 6 0 5 4 -3 9 -7 5 -11 14 -7 20 5
7 1 9 -8 5 -9 -4 -18 1 -22 10 -3 9 -11 16 -17 16 -6 0 2 -13 18 -30z"/>
<path d="M2218 1723 c7 -3 16 -2 19 1 4 3 -2 6 -13 5 -11 0 -14 -3 -6 -6z"/>
<path d="M2575 1720 c-19 -8 -19 -9 2 -9 12 -1 25 4 28 9 7 12 -2 12 -30 0z"/>
<path d="M2360 1705 c0 -8 7 -15 15 -15 8 0 15 7 15 15 0 8 -7 15 -15 15 -8 0
-15 -7 -15 -15z"/>
<path d="M2477 1689 c-17 -18 -23 -29 -15 -29 23 0 50 25 47 42 -3 12 -10 9
-32 -13z"/>
<path d="M2730 1711 c0 -7 -4 -10 -8 -7 -5 3 -9 -2 -9 -10 0 -13 2 -13 16 0 8
9 12 19 8 22 -4 4 -7 2 -7 -5z"/>
<path d="M2424 1695 c-10 -8 -14 -14 -9 -15 15 0 40 18 34 24 -3 3 -14 -1 -25
-9z"/>
<path d="M2330 1673 c0 -17 5 -35 10 -38 13 -8 13 35 0 55 -7 11 -10 7 -10
-17z"/>
<path d="M2668 1693 c7 -3 16 -2 19 1 4 3 -2 6 -13 5 -11 0 -14 -3 -6 -6z"/>
<path d="M2530 1674 c0 -8 5 -12 10 -9 6 4 8 11 5 16 -9 14 -15 11 -15 -7z"/>
<path d="M2613 1683 c9 -2 23 -2 30 0 6 3 -1 5 -18 5 -16 0 -22 -2 -12 -5z"/>
<path d="M2382 1660 c0 -14 2 -19 5 -12 2 6 2 18 0 25 -3 6 -5 1 -5 -13z"/>
<path d="M2560 1670 c0 -5 5 -10 11 -10 5 0 7 5 4 10 -3 6 -8 10 -11 10 -2 0
-4 -4 -4 -10z"/>
<path d="M2600 1660 c0 -5 5 -10 10 -10 6 0 10 5 10 10 0 6 -4 10 -10 10 -5 0
-10 -4 -10 -10z"/>
<path d="M2235 1640 c-3 -6 1 -7 9 -4 18 7 21 14 7 14 -6 0 -13 -4 -16 -10z"/>
<path d="M2278 1633 c7 -3 16 -2 19 1 4 3 -2 6 -13 5 -11 0 -14 -3 -6 -6z"/>
<path d="M1760 1345 c0 -8 2 -15 4 -15 2 0 6 7 10 15 3 8 1 15 -4 15 -6 0 -10
-7 -10 -15z"/>
<path d="M1840 1352 c0 -7 -8 -12 -17 -12 -13 0 -14 -3 -5 -12 9 -9 7 -17 -10
-35 -17 -18 -18 -23 -6 -23 21 0 42 26 35 44 -3 7 0 19 6 25 6 6 8 14 4 18 -4
3 -7 1 -7 -5z"/>
<path d="M1866 1344 c-9 -24 -2 -26 12 -4 7 11 8 20 3 20 -5 0 -12 -7 -15 -16z"/>
<path d="M1378 1343 c7 -3 16 -2 19 1 4 3 -2 6 -13 5 -11 0 -14 -3 -6 -6z"/>
<path d="M1538 1343 c7 -3 16 -2 19 1 4 3 -2 6 -13 5 -11 0 -14 -3 -6 -6z"/>
<path d="M2632 1341 c-11 -6 -10 -10 4 -15 9 -3 19 -4 22 -1 3 3 -1 5 -9 6 -8
1 -3 5 11 9 21 7 21 8 5 9 -11 0 -26 -3 -33 -8z"/>
<path d="M1694 1319 c-3 -6 -1 -16 5 -22 8 -8 11 -5 11 11 0 24 -5 28 -16 11z"/>
<path d="M2560 1320 c0 -5 6 -10 14 -10 8 0 18 5 21 10 3 6 -3 10 -14 10 -12
0 -21 -4 -21 -10z"/>
<path d="M2748 1309 c26 -30 29 -47 5 -28 -16 13 -17 12 -5 -3 8 -9 11 -23 7
-30 -4 -7 1 -4 9 6 21 26 21 28 -11 57 l-28 24 23 -26z"/>
<path d="M1615 1310 c3 -5 8 -10 11 -10 2 0 4 5 4 10 0 6 -5 10 -11 10 -5 0
-7 -4 -4 -10z"/>
<path d="M2348 1313 c7 -3 16 -2 19 1 4 3 -2 6 -13 5 -11 0 -14 -3 -6 -6z"/>
<path d="M1661 1250 c1 -45 4 -59 11 -47 9 17 5 94 -6 104 -3 3 -5 -23 -5 -57z"/>
<path d="M1746 1301 c-4 -5 -2 -12 3 -15 5 -4 12 -2 15 3 4 5 2 12 -3 15 -5 4
-12 2 -15 -3z"/>
<path d="M1247 1272 c-15 -15 -27 -33 -27 -40 0 -7 -4 -12 -10 -12 -5 0 -10
-5 -10 -11 0 -8 5 -8 15 1 8 7 15 17 15 23 0 6 12 24 27 39 15 15 24 28 22 28
-3 0 -17 -13 -32 -28z"/>
<path d="M1540 1279 c0 -5 5 -7 10 -4 6 3 10 8 10 11 0 2 -4 4 -10 4 -5 0 -10
-5 -10 -11z"/>
<path d="M2550 1280 c-9 -6 -10 -10 -3 -10 6 0 15 5 18 10 8 12 4 12 -15 0z"/>
<path d="M2383 1268 c-13 -6 -23 -15 -23 -21 0 -5 7 -4 15 3 8 6 20 8 26 4 7
-4 9 -3 5 4 -3 6 3 12 16 15 19 4 20 4 3 5 -11 0 -30 -4 -42 -10z"/>
<path d="M2725 1272 c4 -8 -1 -23 -11 -35 -18 -22 -18 -22 6 0 20 19 22 25 11
35 -11 11 -13 10 -6 0z"/>
<path d="M1269 1268 c-5 -19 -8 -50 -4 -46 7 7 15 48 9 48 -2 0 -4 -1 -5 -2z"/>
<path d="M1710 1260 c0 -5 5 -10 10 -10 6 0 10 5 10 10 0 6 -4 10 -10 10 -5 0
-10 -4 -10 -10z"/>
<path d="M2588 1253 c7 -3 16 -2 19 1 4 3 -2 6 -13 5 -11 0 -14 -3 -6 -6z"/>
<path d="M2784 1249 c-4 -7 -3 -9 4 -5 5 3 13 0 15 -6 4 -9 6 -10 6 -1 1 17
-16 25 -25 12z"/>
<path d="M1568 1243 c7 -3 16 -2 19 1 4 3 -2 6 -13 5 -11 0 -14 -3 -6 -6z"/>
<path d="M1798 1243 c7 -3 16 -2 19 1 4 3 -2 6 -13 5 -11 0 -14 -3 -6 -6z"/>
<path d="M2643 1226 c-3 -5 -1 -6 5 -2 5 3 12 1 14 -5 2 -7 8 -7 15 3 10 11 8
14 -8 14 -11 0 -23 -5 -26 -10z"/>
<path d="M3051 1224 c0 -11 3 -14 6 -6 3 7 2 16 -1 19 -3 4 -6 -2 -5 -13z"/>
<path d="M1348 1202 c-16 -10 -28 -23 -28 -29 0 -7 -5 -13 -12 -13 -6 0 -8 -3
-4 -7 4 -5 14 1 22 11 7 11 26 28 41 38 35 22 18 22 -19 0z"/>
<path d="M2813 1180 c0 -25 2 -35 4 -22 2 12 2 32 0 45 -2 12 -4 2 -4 -23z"/>
<path d="M1235 1200 c-3 -5 -1 -10 4 -10 6 0 11 5 11 10 0 6 -2 10 -4 10 -3 0
-8 -4 -11 -10z"/>
<path d="M2680 1205 c0 -7 30 -13 34 -7 3 4 -4 9 -15 9 -10 1 -19 0 -19 -2z"/>
<path d="M3061 1181 c-14 -9 -7 -31 10 -31 6 0 7 5 4 10 -3 6 -1 10 4 10 6 0
11 5 11 10 0 12 -10 13 -29 1z"/>
<path d="M3073 1130 c-30 -12 -29 -18 2 -12 14 2 25 8 25 13 0 5 -1 9 -2 8 -2
0 -13 -4 -25 -9z"/>
<path d="M2826 1075 c8 -37 14 -45 14 -19 0 10 -5 26 -10 34 -8 11 -9 7 -4
-15z"/>
<path d="M1654 925 c0 -93 2 -133 3 -88 2 45 2 122 0 170 -1 48 -3 12 -3 -82z"/>
<path d="M942 1020 c0 -14 2 -19 5 -12 2 6 2 18 0 25 -3 6 -5 1 -5 -13z"/>
<path d="M2720 866 c0 -8 -3 -23 -7 -33 -6 -17 -6 -17 10 -1 19 19 22 34 7 43
-5 3 -10 0 -10 -9z"/>
<path d="M940 850 c0 -5 5 -10 11 -10 5 0 7 5 4 10 -3 6 -8 10 -11 10 -2 0 -4
-4 -4 -10z"/>
<path d="M966 821 c-15 -6 -16 -10 -7 -15 8 -5 20 -2 29 8 17 17 9 19 -22 7z"/>
<path d="M2939 803 c-13 -16 -12 -17 4 -4 16 13 21 21 13 21 -2 0 -10 -8 -17
-17z"/>
<path d="M2820 800 c0 -5 5 -10 11 -10 5 0 7 5 4 10 -3 6 -8 10 -11 10 -2 0
-4 -4 -4 -10z"/>
<path d="M3056 797 c3 -10 9 -15 12 -12 3 3 0 11 -7 18 -10 9 -11 8 -5 -6z"/>
<path d="M980 770 c-12 -8 -11 -10 8 -10 12 0 22 5 22 10 0 13 -11 13 -30 0z"/>
<path d="M2907 769 c7 -7 15 -10 18 -7 3 3 -2 9 -12 12 -14 6 -15 5 -6 -5z"/>
<path d="M3060 755 c-7 -8 -16 -12 -21 -9 -10 6 -69 -26 -69 -38 0 -13 9 -9
33 12 12 11 27 18 33 16 7 -3 20 4 30 15 9 10 15 19 12 19 -3 0 -11 -7 -18
-15z"/>
<path d="M936 744 c-9 -22 -8 -24 9 -18 8 4 15 12 15 20 0 19 -16 18 -24 -2z"/>
<path d="M2980 750 c-8 -5 -10 -10 -5 -10 6 0 17 5 25 10 8 5 11 10 5 10 -5 0
-17 -5 -25 -10z"/>
<path d="M1075 734 c11 -8 19 -22 17 -30 -2 -8 1 -14 6 -14 5 0 9 8 9 18 0 17
-24 41 -42 41 -5 0 -1 -6 10 -15z"/>
<path d="M1781 734 c0 -11 3 -14 6 -6 3 7 2 16 -1 19 -3 4 -6 -2 -5 -13z"/>
<path d="M2327 730 c3 -11 9 -17 14 -15 10 7 1 35 -11 35 -5 0 -6 -9 -3 -20z"/>
<path d="M1040 726 c0 -2 7 -9 15 -16 9 -7 15 -8 15 -2 0 5 -7 12 -15 16 -8 3
-15 4 -15 2z"/>
<path d="M3004 698 l-19 -23 25 20 c14 11 27 21 29 22 2 2 0 3 -6 3 -5 0 -18
-10 -29 -22z"/>
<path d="M1178 703 c7 -3 16 -2 19 1 4 3 -2 6 -13 5 -11 0 -14 -3 -6 -6z"/>
<path d="M2361 694 c0 -11 3 -14 6 -6 3 7 2 16 -1 19 -3 4 -6 -2 -5 -13z"/>
<path d="M1168 683 c7 -3 16 -2 19 1 4 3 -2 6 -13 5 -11 0 -14 -3 -6 -6z"/>
<path d="M2334 625 c0 -38 2 -60 4 -48 2 16 8 20 20 16 14 -5 15 -3 5 8 -7 7
-13 20 -13 29 0 13 1 13 10 0 5 -8 10 -10 10 -5 0 14 -19 42 -21 30 0 -5 -4 1
-8 15 -5 16 -7 0 -7 -45z"/>
<path d="M1001 666 c-9 -11 -9 -16 0 -22 7 -4 9 -3 5 4 -10 17 13 25 32 10 15
-12 16 -11 3 5 -16 21 -25 21 -40 3z"/>
<path d="M1090 670 c-8 -5 -10 -10 -5 -10 6 0 17 5 25 10 8 5 11 10 5 10 -5 0
-17 -5 -25 -10z"/>
<path d="M1772 650 c0 -19 2 -27 5 -17 2 9 2 25 0 35 -3 9 -5 1 -5 -18z"/>
<path d="M2908 673 c7 -3 16 -2 19 1 4 3 -2 6 -13 5 -11 0 -14 -3 -6 -6z"/>
<path d="M2838 652 c-16 -10 -28 -21 -28 -25 0 -7 37 15 69 40 14 10 -18 -1
-41 -15z"/>
<path d="M1032 634 c10 -10 20 -16 22 -13 3 3 -5 11 -17 18 -21 13 -21 12 -5
-5z"/>
<path d="M2880 640 c-8 -5 -10 -10 -5 -10 6 0 17 5 25 10 8 5 11 10 5 10 -5 0
-17 -5 -25 -10z"/>
<path d="M2237 633 c-11 -10 -8 -33 4 -33 5 0 7 5 4 10 -3 6 -1 10 4 10 6 0
11 5 11 10 0 11 -13 13 -23 3z"/>
<path d="M2280 611 c0 -10 -4 -21 -9 -23 -12 -5 -24 -48 -13 -48 5 0 12 8 16
18 3 9 10 27 15 39 7 14 7 25 1 28 -6 4 -10 -3 -10 -14z"/>
<path d="M2839 613 c-13 -16 -12 -17 4 -4 16 13 21 21 13 21 -2 0 -10 -8 -17
-17z"/>
<path d="M1130 596 c0 -2 7 -7 16 -10 8 -3 12 -2 9 4 -6 10 -25 14 -25 6z"/>
<path d="M1180 590 c0 -5 5 -10 11 -10 5 0 7 5 4 10 -3 6 -8 10 -11 10 -2 0
-4 -4 -4 -10z"/>
<path d="M1772 575 c0 -16 2 -22 5 -12 2 9 2 23 0 30 -3 6 -5 -1 -5 -18z"/>
<path d="M1650 575 c0 -5 5 -17 10 -25 5 -8 10 -10 10 -5 0 6 -5 17 -10 25 -5
8 -10 11 -10 5z"/>
<path d="M2302 568 c-15 -15 -16 -42 -2 -33 6 4 8 10 5 15 -3 4 1 10 7 13 7 2
10 7 7 10 -3 4 -11 1 -17 -5z"/>
<path d="M2357 563 c-4 -3 -7 -11 -7 -17 0 -6 5 -5 12 2 6 6 9 14 7 17 -3 3
-9 2 -12 -2z"/>
<path d="M2695 556 c3 -10 0 -26 -7 -35 -12 -14 -11 -14 5 -2 13 11 17 11 17
1 0 -8 3 -11 6 -8 3 4 -2 19 -11 35 -9 15 -14 20 -10 9z"/>
<path d="M1642 530 c0 -14 2 -19 5 -12 2 6 2 18 0 25 -3 6 -5 1 -5 -13z"/>
<path d="M1666 514 c-3 -9 -2 -23 2 -31 8 -13 10 -13 15 1 4 11 3 15 -4 10 -8
-4 -9 1 -4 15 7 24 0 29 -9 5z"/>
<path d="M1207 501 c-4 -17 -3 -21 5 -13 5 5 8 16 6 23 -3 8 -7 3 -11 -10z"/>
<path d="M1740 510 c0 -5 5 -10 11 -10 5 0 7 5 4 10 -3 6 -8 10 -11 10 -2 0
-4 -4 -4 -10z"/>
<path d="M1240 495 c0 -8 2 -15 4 -15 2 0 6 7 10 15 3 8 1 15 -4 15 -6 0 -10
-7 -10 -15z"/>
<path d="M1330 501 c0 -6 4 -13 10 -16 6 -3 7 1 4 9 -7 18 -14 21 -14 7z"/>
<path d="M2751 483 c-1 -6 -4 -20 -7 -30 -5 -17 -5 -17 6 0 6 10 9 23 6 30 -3
9 -5 9 -5 0z"/>
<path d="M1311 464 c0 -11 3 -14 6 -6 3 7 2 16 -1 19 -3 4 -6 -2 -5 -13z"/>
<path d="M1610 472 c0 -5 7 -15 15 -22 8 -7 15 -8 15 -2 0 5 -7 15 -15 22 -8
7 -15 8 -15 2z"/>
<path d="M1719 449 c-26 -25 -29 -29 -9 -19 29 15 54 39 48 45 -3 3 -20 -9
-39 -26z"/>
<path d="M2270 475 c0 -5 5 -17 10 -25 5 -8 10 -10 10 -5 0 6 -5 17 -10 25 -5
8 -10 11 -10 5z"/>
<path d="M2409 478 c-5 -18 -6 -38 -1 -34 7 8 12 36 6 36 -2 0 -4 -1 -5 -2z"/>
<path d="M2645 466 c11 -8 24 -12 29 -8 5 3 1 9 -10 13 -31 12 -39 10 -19 -5z"/>
<path d="M2780 465 c-7 -9 -11 -17 -9 -20 3 -2 10 5 17 15 14 24 10 26 -8 5z"/>
<path d="M1365 461 c-9 -15 15 -25 28 -12 9 9 7 10 -7 5 -13 -5 -17 -4 -12 4
4 7 5 12 2 12 -3 0 -7 -4 -11 -9z"/>
<path d="M2439 462 c11 -8 11 -10 0 -14 -8 -3 0 -5 18 -4 35 1 32 10 -7 21
-17 4 -21 3 -11 -3z"/>
<path d="M2717 456 c-6 -14 4 -26 33 -40 8 -4 6 0 -5 9 -11 9 -19 23 -17 31 4
18 -4 18 -11 0z"/>
<path d="M1336 443 c-6 -14 -5 -15 5 -6 7 7 10 15 7 18 -3 3 -9 -2 -12 -12z"/>
<path d="M2301 444 c-1 -12 6 -27 14 -34 10 -9 15 -9 15 -1 0 6 5 11 11 11 6
0 9 -6 6 -14 -6 -14 13 -35 43 -51 8 -4 2 5 -15 19 -25 23 -27 26 -8 21 25 -7
41 12 24 28 -9 9 -11 8 -6 -5 9 -22 -1 -23 -21 -3 -11 11 -12 15 -3 15 7 0 10
3 7 6 -4 3 -16 1 -27 -6 -18 -9 -23 -8 -31 12 -8 22 -9 22 -9 2z"/>
<path d="M2590 450 c-8 -5 -10 -10 -5 -10 6 0 17 5 25 10 8 5 11 10 5 10 -5 0
-17 -5 -25 -10z"/>
<path d="M1264 403 c22 -24 42 -40 45 -37 3 3 -2 11 -11 18 -10 7 -16 16 -13
19 3 4 2 5 -2 2 -3 -3 -18 5 -32 17 -14 13 -8 4 13 -19z"/>
<path d="M2650 430 c-8 -5 -12 -12 -9 -15 4 -3 12 1 19 10 14 17 11 19 -10 5z"/>
<path d="M2710 411 c0 -5 7 -12 16 -15 14 -5 15 -4 4 9 -14 17 -20 19 -20 6z"/>
<path d="M1315 400 c3 -5 8 -10 11 -10 2 0 4 5 4 10 0 6 -5 10 -11 10 -5 0 -7
-4 -4 -10z"/>
<path d="M1689 393 c-13 -16 -12 -17 4 -4 16 13 21 21 13 21 -2 0 -10 -8 -17
-17z"/>
<path d="M2650 378 c0 -9 7 -19 16 -22 15 -6 15 -4 3 11 -7 10 -15 20 -16 22
-2 2 -3 -3 -3 -11z"/>
<path d="M2695 380 c-3 -6 1 -7 9 -4 18 7 21 14 7 14 -6 0 -13 -4 -16 -10z"/>
<path d="M1320 356 c0 -3 9 -10 20 -16 11 -6 20 -8 20 -6 0 3 -9 10 -20 16
-11 6 -20 8 -20 6z"/>
<path d="M1387 348 c2 -5 15 -8 29 -8 13 0 24 3 24 8 0 4 -13 7 -29 7 -16 0
-27 -3 -24 -7z"/>
<path d="M1459 339 c-10 -6 -7 -9 14 -9 29 0 35 5 14 13 -8 3 -20 1 -28 -4z"/>
<path d="M1548 343 c6 -2 18 -2 25 0 6 3 1 5 -13 5 -14 0 -19 -2 -12 -5z"/>
<path d="M2438 333 c7 -3 16 -2 19 1 4 3 -2 6 -13 5 -11 0 -14 -3 -6 -6z"/>
<path d="M1478 313 c7 -3 16 -2 19 1 4 3 -2 6 -13 5 -11 0 -14 -3 -6 -6z"/>
</g>
</svg>
